<svg xmlns="http://www.w3.org/2000/svg" viewBox="0 0 2418.3 384"><defs><style>.b1d43f38-4e52-4ed7-9445-c518f7864cdc{fill:#00bcd4;}.b85a27e5-6215-4b85-9112-27e1819aff94{isolation:isolate;}.ff06c520-6fa0-472e-8a62-eaa6e2c2e8b9{fill:#3c3c3b;}</style></defs><g id="e162c177-3f60-4d49-84eb-a4ece92d9dfb" data-name="Слой 2"><g id="acb35563-bc4f-4ce4-b83a-0b2a101f2457" data-name="Слой 1"><g id="e274b371-5eea-4bf6-aa32-2d8c4dd037f8" data-name="b1922f15-043e-419f-9f28-26717249749d"><g id="b81cf077-30e8-416f-8fd6-7ae5e94d7230" data-name="b99870c9-2beb-40a5-a06b-da21cc4feea1"><path class="b1d43f38-4e52-4ed7-9445-c518f7864cdc" d="M192,0C86,0,0,86,0,192A191.26,191.26,0,0,0,47.79,318.76V261.45c-1.13-2.35-2.21-4.74-3.23-7.15a161.32,161.32,0,1,1,67.23,76.15v36A191.28,191.28,0,0,0,192,384c106,0,192-86,192-192S298,0,192,0Z"/><path class="b1d43f38-4e52-4ed7-9445-c518f7864cdc" d="M192,64A128,128,0,0,0,64,192V384H96V276.67A128,128,0,1,0,192,64Zm67.88,195.88A96,96,0,1,1,288,192,96,96,0,0,1,259.88,259.88Z"/><g class="b85a27e5-6215-4b85-9112-27e1819aff94"><path class="ff06c520-6fa0-472e-8a62-eaa6e2c2e8b9" d="M701.53,279q-34.69,34.54-84.45,34.53T532.79,279q-34.53-34.53-34.53-84.61t34.53-84.61q34.53-34.53,84.29-34.54t84.45,34.54q34.68,34.53,34.69,84.61T701.53,279ZM564.38,248.27q21.27,21.12,52.7,21.11t52.7-21.11q21.27-21.11,21.27-53.84t-21.27-54q-21.28-21.27-52.7-21.28t-52.7,21.28q-21.28,21.29-21.28,54T564.38,248.27Z"/><path class="ff06c520-6fa0-472e-8a62-eaa6e2c2e8b9" d="M861.26,140.75q33,0,56.46,25t23.4,61.37q0,36.33-23.4,61.37t-56.46,25q-34.38,0-53-23.89V309H766V79.87h42.22v84.77Q826.89,140.76,861.26,140.75ZM821,260.38q12.76,12.94,32.4,12.93T886,260.38q12.93-12.91,12.93-33.22T886,193.94Q873,181,853.4,181T821,193.94q-12.76,12.93-12.77,33.22T821,260.38Z"/><path class="ff06c520-6fa0-472e-8a62-eaa6e2c2e8b9" d="M1110.34,288.53q-25.2,25.05-61.53,25t-61.37-25q-25.05-25-25-61.37t25-61.37q25-25,61.37-25t61.53,25q25.22,25,25.21,61.37T1110.34,288.53Zm-93.12-29q12.6,12.78,31.59,12.77t31.75-12.77q12.76-12.76,12.76-32.4t-12.76-32.4Q1067.8,182,1048.81,182t-31.59,12.77q-12.6,12.77-12.6,32.4T1017.22,259.56Z"/><path class="ff06c520-6fa0-472e-8a62-eaa6e2c2e8b9" d="M1289.39,79.87h42.22V309h-42.22V289.68q-18.66,23.9-53,23.89-33.06,0-56.46-25t-23.4-61.37q0-36.33,23.4-61.37t56.46-25q34.37,0,53,23.89Zm-77.74,180.51q12.93,12.94,32.57,12.93t32.4-12.93q12.77-12.91,12.77-33.22t-12.77-33.22Q1263.86,181,1244.22,181t-32.57,12.93q-12.93,12.93-12.93,33.22T1211.65,260.38Z"/></g><g class="b85a27e5-6215-4b85-9112-27e1819aff94"><path class="ff06c520-6fa0-472e-8a62-eaa6e2c2e8b9" d="M1539.45,79.87q33,0,55.64,22.25t22.59,54.67q0,32.4-22.59,54.66t-55.64,22.26h-40.26V309H1454V79.87Zm0,111.61q14.4,0,23.89-10t9.49-24.71q0-15.06-9.49-24.88t-23.89-9.82h-40.26v69.39Z"/></g><g class="b85a27e5-6215-4b85-9112-27e1819aff94"><path class="ff06c520-6fa0-472e-8a62-eaa6e2c2e8b9" d="M1674,191.81q0,6.56,8.68,10.64a115,115,0,0,0,21.11,7.2,219.07,219.07,0,0,1,24.88,7.85,48.38,48.38,0,0,1,21.11,15.88q8.67,11.13,8.67,27.82,0,25.21-18.82,38.79t-47,13.58q-50.42,0-68.74-38.95L1660.55,254q7.2,21.28,32.08,21.28,22.59,0,22.59-14.08,0-6.54-8.68-10.64a124.26,124.26,0,0,0-21.11-7.36,220.32,220.32,0,0,1-24.88-8.18,51.14,51.14,0,0,1-21.11-15.55q-8.67-10.64-8.67-26.68,0-24.21,17.84-38.13T1693,140.75a74.16,74.16,0,0,1,36.33,9,65.78,65.78,0,0,1,25.86,25.69l-36,19.64q-7.85-16.7-26.18-16.69-8.19,0-13.59,3.6A11.23,11.23,0,0,0,1674,191.81Z"/></g><g class="b85a27e5-6215-4b85-9112-27e1819aff94"><path class="ff06c520-6fa0-472e-8a62-eaa6e2c2e8b9" d="M1936.49,309h-49.1l-59.57-74.3V309h-42.23V79.87h42.23V217.34l56.3-72h50.4l-65.79,80.85Z"/></g><g class="b85a27e5-6215-4b85-9112-27e1819aff94"><path class="ff06c520-6fa0-472e-8a62-eaa6e2c2e8b9" d="M1981.33,244.51q8.51,30.76,46.15,30.77,24.22,0,36.66-16.37l34,19.64q-24.22,35-71.35,35-40.59,0-65.14-24.55t-24.55-61.86q0-37,24.22-61.7t62.19-24.71q36,0,59.41,24.87t23.41,61.54a99,99,0,0,1-1.64,17.35Zm-.66-32.73h83.47q-3.6-16.69-14.89-24.88a42.74,42.74,0,0,0-25.7-8.18q-17,0-28.15,8.67T1980.67,211.78Z"/><path class="ff06c520-6fa0-472e-8a62-eaa6e2c2e8b9" d="M2226.82,140.75q26.83,0,44.35,18t17.51,49.75V309h-42.22V213.74q0-16.37-8.84-25T2214.05,180q-16.37,0-26.18,10.14t-9.82,30.44V309h-42.23V145.33h42.23v18.33Q2193.43,140.76,2226.82,140.75Z"/><path class="ff06c520-6fa0-472e-8a62-eaa6e2c2e8b9" d="M2418.3,185.92h-37V254q0,8.52,4.26,12.44t12.44,4.42a184.35,184.35,0,0,0,20.29-.17V309q-43.55,4.9-61.37-8.18T2339.09,254V185.92h-28.48V145.33h28.48V112.27l42.22-12.76v45.82h37Z"/></g></g></g></g></g></svg>